<svg width="393" height="155" viewBox="0 0 393 155" fill="none" xmlns="http://www.w3.org/2000/svg">
<path fill-rule="evenodd" clip-rule="evenodd" d="M197.25 11C224.036 11 245.75 32.4903 245.75 59C245.75 71.5319 240.895 82.9398 232.948 91.4883C220.728 108.82 204.383 125.719 196.599 133C189.147 128.508 173.906 108.522 162.863 92.8486C154.141 84.1697 148.75 72.2081 148.75 59C148.75 32.4903 170.464 11 197.25 11ZM205.373 56.6582C198.466 51.6633 191.244 54.8375 188.497 57.0488C187.581 57.6993 185.593 59.312 184.965 60.5605C184.337 61.8092 181.564 63.942 180.256 64.8525C175.546 67.6622 174.631 72.2676 174.762 74.2188C175.154 82.4133 181.826 86.7055 188.89 84.3643C195.954 82.0229 198.701 82.4131 205.373 84.3643C212.044 86.3151 216.754 82.8036 219.108 78.1211C221.463 73.4384 216.753 66.0232 214.398 64.8525C212.044 63.6818 209.689 61.3409 209.297 60.5605C208.983 59.9362 206.55 57.6988 205.373 56.6582ZM226.731 52.4648C226.342 47.0519 223.62 44.7327 219.73 45.5059C217.915 46.1502 214.207 48.5213 213.896 52.8516C213.507 58.2643 216.618 60.584 218.952 60.9707C221.286 61.3573 227.12 57.8779 226.731 52.4648ZM180.057 50.918C177.334 44.732 172.277 43.959 169.555 47.0518C168.388 48.3405 166.598 52.0782 168.776 56.7178C170.954 61.3569 175.388 61.2282 177.333 60.584C179.148 59.4241 182.235 55.8669 180.057 50.918ZM195.226 40.4795C193.67 31.5869 186.243 32.7463 185.112 33.5195C183.167 34.5507 179.589 38.1598 180.834 44.3457C182.079 50.5316 186.539 51.8203 188.613 51.6914C191.336 50.9182 196.47 47.5933 195.226 40.4795ZM212.729 36.6133C211.043 34.2935 206.583 30.7362 202.227 35.0664C200.411 36.7419 197.326 41.4844 199.504 47.0518C202.226 54.011 210.394 50.9187 211.173 48.9854C212.599 47.0522 214.906 41.8714 212.729 36.6133Z" fill="#26C000"/>
<path d="M248.75 133.5C248.75 145.374 225.693 155 197.25 155C168.807 155 145.75 145.374 145.75 133.5C145.75 121.626 168.807 112 197.25 112C225.693 112 248.75 121.626 248.75 133.5Z" fill="#26C000" fill-opacity="0.25"/>
<path d="M230.75 134C230.75 141.732 215.304 148 196.25 148C177.196 148 161.75 141.732 161.75 134C161.75 126.268 177.196 120 196.25 120C215.304 120 230.75 126.268 230.75 134Z" fill="#26C000" fill-opacity="0.5"/>
<path d="M198.297 128V131H195.25V128H198.297ZM210.484 128V131H204.391V128H210.484ZM222.672 128V131H216.578V128H222.672ZM234.859 128V131H228.766V128H234.859ZM247.047 128V131H240.953V128H247.047ZM259.234 128V131H253.141V128H259.234ZM271.422 128V131H265.328V128H271.422ZM283.609 128V131H277.516V128H283.609ZM295.797 128V131H289.703V128H295.797ZM307.984 128V131H301.891V128H307.984ZM320.172 128V131H314.078V128H320.172ZM332.359 128V131H326.266V128H332.359ZM344.547 128V131H338.453V128H344.547ZM356.734 128V131H350.641V128H356.734ZM368.922 128V131H362.828V128H368.922ZM381.109 128V131H375.016V128H381.109ZM390.25 128V131H387.203V128H390.25Z" fill="url(#paint0_linear_34_563)"/>
<defs>
<linearGradient id="paint0_linear_34_563" x1="195.25" y1="130" x2="390.25" y2="130" gradientUnits="userSpaceOnUse">
<stop stop-color="#26C000"/>
<stop offset="1" stop-color="white"/>
</linearGradient>
</defs>
</svg>
