<svg width="178" height="165" viewBox="0 0 178 165" fill="none" xmlns="http://www.w3.org/2000/svg">
<ellipse cx="88.7495" cy="129.937" rx="88.7495" ry="34.6794" fill="white" fill-opacity="0.25"/>
<g filter="url(#filter0_d_1_1720)">
<path d="M88.377 8C114.12 8.00018 134.988 28.8692 134.988 54.6123C134.988 62.5695 132.993 70.0599 129.478 76.6133H129.769C118.022 96.4026 96.8563 118.171 87.7422 126.581C79.4995 121.679 61.4701 97.5686 50.7607 82.1396C50.2243 81.4079 49.7077 80.6608 49.2139 79.8975C48.4154 78.7328 47.6694 77.6334 46.9854 76.6133H47.2764C43.7609 70.0598 41.7647 62.5696 41.7646 54.6123C41.7646 28.8691 62.6338 8 88.377 8ZM97.127 51.2783C89.6863 45.6305 81.9066 49.2194 78.9473 51.7197C77.9607 52.4551 75.8192 54.2786 75.1426 55.6904C74.4662 57.1024 71.4785 59.5154 70.0693 60.5449C64.9968 63.7216 64.0096 68.9274 64.1504 71.1338C64.5732 80.3996 71.7604 85.2536 79.3701 82.6064C86.9799 79.959 89.9399 80.4003 97.127 82.6064C104.314 84.8125 109.387 80.8416 111.924 75.5469C114.46 70.2523 109.387 61.8692 106.851 60.5449C104.314 59.2212 101.777 56.5729 101.354 55.6904C101.016 54.9839 98.395 52.4547 97.127 51.2783ZM121.544 47.1553C121.106 41.2442 118.043 38.7112 113.667 39.5557C111.625 40.2594 107.454 42.8493 107.104 47.5781C106.666 53.4891 110.167 56.0221 112.792 56.4443C115.418 56.8665 121.982 53.0666 121.544 47.1553ZM69.0332 45.4668C65.9702 38.7113 60.2818 37.8666 57.2188 41.2441C55.906 42.6516 53.8933 46.7331 56.3438 51.7998C58.7942 56.8665 63.7828 56.7262 65.9707 56.0225C68.0128 54.7557 71.4835 50.8711 69.0332 45.4668ZM86.0996 34.0664C84.3493 24.3553 75.9937 25.6223 74.7217 26.4668C72.5337 27.593 68.508 31.5338 69.9082 38.2891C71.3085 45.0444 76.3263 46.4522 78.6602 46.3115C81.7233 45.4671 87.4999 41.8354 86.0996 34.0664ZM105.791 29.8447C103.895 27.3114 98.8765 23.4264 93.9756 28.1553C91.9335 29.9848 88.4626 35.1639 90.9131 41.2441C93.9762 48.8444 103.165 45.4668 104.04 43.3555C105.644 41.2444 108.241 35.5868 105.791 29.8447Z" fill="white"/>
</g>
<ellipse cx="88.3766" cy="128.073" rx="65.257" ry="25.357" fill="white" fill-opacity="0.25"/>
<ellipse cx="87.6308" cy="127.7" rx="42.8832" ry="16.7804" fill="white" fill-opacity="0.5"/>
<defs>
<filter id="filter0_d_1_1720" x="31.6964" y="0.914955" width="113.36" height="138.717" filterUnits="userSpaceOnUse" color-interpolation-filters="sRGB">
<feFlood flood-opacity="0" result="BackgroundImageFix"/>
<feColorMatrix in="SourceAlpha" type="matrix" values="0 0 0 0 0 0 0 0 0 0 0 0 0 0 0 0 0 0 127 0" result="hardAlpha"/>
<feOffset dy="2.98318"/>
<feGaussianBlur stdDeviation="5.03411"/>
<feComposite in2="hardAlpha" operator="out"/>
<feColorMatrix type="matrix" values="0 0 0 0 0 0 0 0 0 0 0 0 0 0 0 0 0 0 0.25 0"/>
<feBlend mode="normal" in2="BackgroundImageFix" result="effect1_dropShadow_1_1720"/>
<feBlend mode="normal" in="SourceGraphic" in2="effect1_dropShadow_1_1720" result="shape"/>
</filter>
</defs>
</svg>
