<svg width="19" height="17" viewBox="0 0 19 17" fill="none" xmlns="http://www.w3.org/2000/svg">
<path d="M11.6875 1.5H7.3125L5.125 4.125H2.5C2.03587 4.125 1.59075 4.30937 1.26256 4.63756C0.934374 4.96575 0.75 5.41087 0.75 5.875V13.75C0.75 14.2141 0.934374 14.6592 1.26256 14.9874C1.59075 15.3156 2.03587 15.5 2.5 15.5H16.5C16.9641 15.5 17.4092 15.3156 17.7374 14.9874C18.0656 14.6592 18.25 14.2141 18.25 13.75V5.875C18.25 5.41087 18.0656 4.96575 17.7374 4.63756C17.4092 4.30937 16.9641 4.125 16.5 4.125H13.875L11.6875 1.5Z" stroke="white" stroke-width="1.5" stroke-linecap="round" stroke-linejoin="round"/>
<path d="M9.5 12C10.9497 12 12.125 10.8247 12.125 9.375C12.125 7.92525 10.9497 6.75 9.5 6.75C8.05025 6.75 6.875 7.92525 6.875 9.375C6.875 10.8247 8.05025 12 9.5 12Z" stroke="white" stroke-width="1.5" stroke-linecap="round" stroke-linejoin="round"/>
</svg>
