<svg width="72" height="72" viewBox="0 0 72 72" fill="none" xmlns="http://www.w3.org/2000/svg">
<path d="M56.1303 21.6301C55.8514 21.3489 55.5196 21.1257 55.1541 20.9734C54.7885 20.8211 54.3964 20.7427 54.0003 20.7427C53.6043 20.7427 53.2122 20.8211 52.8466 20.9734C52.481 21.1257 52.1492 21.3489 51.8703 21.6301L29.5203 44.0101L20.1303 34.5901C19.8408 34.3104 19.4989 34.0904 19.1244 33.9428C18.7498 33.7952 18.3498 33.7228 17.9473 33.7298C17.5448 33.7367 17.1475 33.8229 16.7783 33.9834C16.4091 34.1439 16.0751 34.3755 15.7953 34.6651C15.5156 34.9546 15.2957 35.2965 15.1481 35.671C15.0005 36.0456 14.9281 36.4456 14.935 36.8481C14.942 37.2506 15.0282 37.6479 15.1887 38.0171C15.3491 38.3863 15.5808 38.7204 15.8703 39.0001L27.3903 50.5201C27.6692 50.8013 28.001 51.0244 28.3666 51.1767C28.7322 51.3291 29.1243 51.4075 29.5203 51.4075C29.9164 51.4075 30.3085 51.3291 30.6741 51.1767C31.0396 51.0244 31.3715 50.8013 31.6503 50.5201L56.1303 26.0401C56.4348 25.7591 56.6779 25.4182 56.8441 25.0387C57.0103 24.6592 57.0961 24.2494 57.0961 23.8351C57.0961 23.4208 57.0103 23.011 56.8441 22.6315C56.6779 22.252 56.4348 21.911 56.1303 21.6301Z" fill="#26C000"/>
</svg>
