<svg width="127" height="127" viewBox="0 0 127 127" fill="none" xmlns="http://www.w3.org/2000/svg">
<circle cx="63.5" cy="63.5" r="63.5" fill="#F2F2F2"/>
<path d="M72.7056 59.1728C64.8776 53.2112 56.6937 56.9993 53.5803 59.6386C52.5424 60.4148 50.2888 62.3399 49.5772 63.8303C48.8655 65.3207 45.7226 67.8668 44.2401 68.9536C38.9028 72.307 37.865 77.8029 38.0132 80.1317C38.458 89.9125 46.0192 95.0358 54.0251 92.2413C62.031 89.4468 65.1444 89.9125 72.7056 92.2413C80.2667 94.5701 85.604 90.3783 88.2727 84.7892C90.9413 79.2002 85.604 70.3508 82.9354 68.9536C80.2667 67.5563 77.5981 64.7618 77.1533 63.8303C76.7975 63.0851 74.0399 60.4148 72.7056 59.1728Z" fill="#B5B5B5"/>
<path d="M30.2002 60.1058C27.6529 54.8034 29.7453 50.532 31.11 49.0591C34.2941 45.5242 40.2078 46.4079 43.392 53.4778C45.9394 59.1337 42.3306 63.1989 40.2078 64.5245C37.9333 65.261 32.7476 65.4082 30.2002 60.1058Z" fill="#B5B5B5"/>
<path d="M44.3018 45.9662C42.8461 38.8963 47.0311 34.7722 49.3055 33.5939C50.6279 32.7101 59.313 31.3845 61.1325 41.5475C62.5882 49.6779 56.5837 53.4779 53.3995 54.3617C50.9734 54.5089 45.7574 53.0361 44.3018 45.9662Z" fill="#B5B5B5"/>
<path d="M66.1363 49.0591C63.5889 42.6961 67.1977 37.2761 69.3205 35.3614C74.4152 30.4126 79.6312 34.4777 81.6024 37.1289C84.1498 43.1383 81.4508 49.0593 79.7829 51.2687C78.8731 53.4782 69.3205 57.013 66.1363 49.0591Z" fill="#B5B5B5"/>
<path d="M82.9671 55.6874C83.331 50.7384 87.6676 48.0283 89.7904 47.2919C94.3392 46.4081 97.5234 49.0591 97.9783 55.2455C98.4332 61.4318 91.6099 65.4084 88.8806 64.9666C86.1513 64.5247 82.5122 61.8735 82.9671 55.6874Z" fill="#B5B5B5"/>
</svg>
