<svg width="238" height="220" viewBox="0 0 238 220" fill="none" xmlns="http://www.w3.org/2000/svg">
<ellipse cx="119" cy="173.5" rx="119" ry="46.5" fill="white" fill-opacity="0.25"/>
<g filter="url(#filter0_d_203_1140)">
<path d="M181 72.5C181 107.018 153.018 135 118.5 135C83.9822 135 56 107.018 56 72.5C56 37.9822 83.9822 10 118.5 10C153.018 10 181 37.9822 181 72.5Z" fill="white"/>
<path d="M117.649 169C105.157 161.57 75.8995 121.238 63 102H174C158.249 128.535 129.87 157.723 117.649 169Z" fill="white"/>
</g>
<path d="M130.233 68.0304C120.256 60.4574 109.825 65.2694 105.857 68.622C104.534 69.608 101.662 72.0533 100.755 73.9466C99.8482 75.8398 95.8425 79.0741 93.953 80.4545C87.1506 84.7143 85.8279 91.6956 86.0168 94.6538C86.5837 107.078 96.2205 113.586 106.424 110.036C116.628 106.486 120.596 107.078 130.233 110.036C139.869 112.994 146.672 107.67 150.073 100.57C153.474 93.4705 146.672 82.2294 143.271 80.4545C139.869 78.6796 136.468 75.1298 135.901 73.9466C135.448 72.9999 131.933 69.608 130.233 68.0304Z" fill="#48CF6E"/>
<path d="M75.5481 68.7293C72.2624 61.9356 74.9614 56.4629 76.7216 54.5758C80.8287 50.0466 88.4564 51.1789 92.5636 60.2372C95.8493 67.4838 91.1945 72.6923 88.4564 74.3908C85.5227 75.3343 78.8338 75.5231 75.5481 68.7293Z" fill="#48CF6E"/>
<path d="M93.7371 50.6129C91.8595 41.5546 97.2575 36.2706 100.191 34.7609C101.897 33.6286 113.099 31.9302 115.446 44.9515C117.324 55.3685 109.579 60.2373 105.472 61.3696C102.343 61.5583 95.6146 59.6712 93.7371 50.6129Z" fill="#48CF6E"/>
<path d="M121.9 54.5758C118.615 46.4231 123.269 39.4787 126.008 37.0256C132.579 30.6849 139.307 35.8934 141.849 39.2902C145.135 46.9897 141.654 54.576 139.503 57.4067C138.329 60.2377 126.008 64.7666 121.9 54.5758Z" fill="#48CF6E"/>
<path d="M143.61 63.0682C144.079 56.7274 149.673 53.255 152.411 52.3115C158.278 51.1792 162.385 54.5758 162.972 62.502C163.559 70.4283 154.758 75.5233 151.237 74.9572C147.717 74.391 143.023 70.9942 143.61 63.0682Z" fill="#48CF6E"/>
<ellipse cx="118.5" cy="171" rx="87.5" ry="34" fill="white" fill-opacity="0.25"/>
<ellipse cx="117.5" cy="170.5" rx="57.5" ry="22.5" fill="white" fill-opacity="0.5"/>
<defs>
<filter id="filter0_d_203_1140" x="42.5" y="0.5" width="152" height="186" filterUnits="userSpaceOnUse" color-interpolation-filters="sRGB">
<feFlood flood-opacity="0" result="BackgroundImageFix"/>
<feColorMatrix in="SourceAlpha" type="matrix" values="0 0 0 0 0 0 0 0 0 0 0 0 0 0 0 0 0 0 127 0" result="hardAlpha"/>
<feOffset dy="4"/>
<feGaussianBlur stdDeviation="6.75"/>
<feComposite in2="hardAlpha" operator="out"/>
<feColorMatrix type="matrix" values="0 0 0 0 0 0 0 0 0 0 0 0 0 0 0 0 0 0 0.25 0"/>
<feBlend mode="normal" in2="BackgroundImageFix" result="effect1_dropShadow_203_1140"/>
<feBlend mode="normal" in="SourceGraphic" in2="effect1_dropShadow_203_1140" result="shape"/>
</filter>
</defs>
</svg>
