<svg width="75" height="64" viewBox="0 0 75 64" fill="none" xmlns="http://www.w3.org/2000/svg">
<path d="M48.8571 20.5128C48.8571 31.8417 39.7429 41.0256 28.5 41.0256C17.2571 41.0256 8.14286 31.8417 8.14286 20.5128C8.14286 9.1839 17.2571 0 28.5 0C39.7429 0 48.8571 9.1839 48.8571 20.5128Z" fill="white"/>
<path d="M28.2229 52.1846C24.1541 49.7462 14.6244 36.5088 10.4229 30.1949H46.5771C41.4468 38.9037 32.2034 48.4834 28.2229 52.1846Z" fill="white"/>
<path d="M32.3215 19.0459C29.0719 16.5604 25.6745 18.1397 24.3821 19.24C23.9512 19.5637 23.0157 20.3662 22.7203 20.9876C22.4248 21.609 21.1201 22.6705 20.5047 23.1235C18.289 24.5216 17.8582 26.8129 17.9198 27.7838C18.1044 31.8615 21.2432 33.9975 24.5667 32.8324C27.8902 31.6673 29.1826 31.8615 32.3215 32.8324C35.4603 33.8033 37.676 32.0557 38.7838 29.7256C39.8916 27.3954 37.676 23.7061 36.5681 23.1235C35.4603 22.541 34.3525 21.3759 34.1679 20.9876C34.0201 20.6769 32.8754 19.5637 32.3215 19.0459Z" fill="#48CF6E"/>
<path d="M14.51 19.2753C13.4398 17.0455 14.3188 15.2494 14.8922 14.63C16.2299 13.1435 18.7144 13.5151 20.0521 16.4881C21.1223 18.8665 19.6062 20.576 18.7144 21.1334C17.7588 21.4431 15.5802 21.505 14.51 19.2753Z" fill="#48CF6E"/>
<path d="M20.4344 13.3294C19.8228 10.3564 21.581 8.62215 22.5366 8.12665C23.0921 7.75503 26.7409 7.1976 27.5054 11.4713C28.1169 14.8902 25.5943 16.4882 24.2565 16.8598C23.2373 16.9217 21.0459 16.3023 20.4344 13.3294Z" fill="#48CF6E"/>
<path d="M29.6076 14.63C28.5374 11.9542 30.0535 9.67507 30.9453 8.86994C33.0858 6.78889 35.2771 8.49833 36.1053 9.61319C37.1755 12.1402 36.0416 14.6301 35.3408 15.5591C34.9586 16.4883 30.9453 17.9747 29.6076 14.63Z" fill="#48CF6E"/>
<path d="M36.6786 17.4172C36.8315 15.3362 38.6534 14.1965 39.5452 13.8868C41.4563 13.5152 42.7941 14.63 42.9852 17.2314C43.1763 19.8329 40.3097 21.5051 39.163 21.3193C38.0164 21.1335 36.4875 20.0186 36.6786 17.4172Z" fill="#48CF6E"/>
<path d="M57 52.841C57 59.004 44.2401 64 28.5 64C12.7599 64 0 59.004 0 52.841C0 46.6781 12.7599 41.6821 28.5 41.6821C44.2401 41.6821 57 46.6781 57 52.841Z" fill="white" fill-opacity="0.25"/>
<path d="M46.9029 52.6769C46.9029 56.7553 38.5178 60.0615 28.1743 60.0615C17.8308 60.0615 9.44571 56.7553 9.44571 52.6769C9.44571 48.5985 17.8308 45.2923 28.1743 45.2923C38.5178 45.2923 46.9029 48.5985 46.9029 52.6769Z" fill="white" fill-opacity="0.5"/>
<path d="M29 52L74 52" stroke="white" stroke-width="2" stroke-linecap="round" stroke-linejoin="round" stroke-dasharray="4 4"/>
</svg>
