<svg width="25" height="24" viewBox="0 0 25 24" fill="none" xmlns="http://www.w3.org/2000/svg">
<g clip-path="url(#clip0_391_3454)">
<path d="M13 21C10.7 21 8.696 20.2377 6.988 18.713C5.28 17.1883 4.30067 15.284 4.05 13H6.1C6.33333 14.7333 7.10433 16.1667 8.413 17.3C9.72167 18.4333 11.2507 19 13 19C14.95 19 16.6043 18.321 17.963 16.963C19.3217 15.605 20.0007 13.9507 20 12C19.9993 10.0493 19.3203 8.39533 17.963 7.038C16.6057 5.68067 14.9513 5.00133 13 5C11.85 5 10.775 5.26667 9.775 5.8C8.775 6.33333 7.93333 7.06667 7.25 8H10V10H4V4H6V6.35C6.85 5.28333 7.88767 4.45833 9.113 3.875C10.3383 3.29167 11.634 3 13 3C14.25 3 15.421 3.23767 16.513 3.713C17.605 4.18833 18.555 4.82967 19.363 5.637C20.171 6.44433 20.8127 7.39433 21.288 8.487C21.7633 9.57967 22.0007 10.7507 22 12C21.9993 13.2493 21.762 14.4203 21.288 15.513C20.814 16.6057 20.1723 17.5557 19.363 18.363C18.5537 19.1703 17.6037 19.812 16.513 20.288C15.4223 20.764 14.2513 21.0013 13 21ZM15.8 16.2L12 12.4V7H14V11.6L17.2 14.8L15.8 16.2Z" fill="#9E9E9E"/>
</g>
<defs>
<clipPath id="clip0_391_3454">
<rect width="24" height="24" fill="white" transform="translate(0.799805)"/>
</clipPath>
</defs>
</svg>
