<svg width="18" height="22" viewBox="0 0 18 22" fill="none" xmlns="http://www.w3.org/2000/svg">
<path d="M17.422 7.50055C17.2944 7.59956 15.0413 8.86909 15.0413 11.692C15.0413 14.9571 17.9082 16.1122 17.994 16.1408C17.9808 16.2112 17.5386 17.7228 16.4825 19.2629C15.5408 20.6183 14.5573 21.9714 13.0611 21.9714C11.565 21.9714 11.1799 21.1023 9.45276 21.1023C7.76959 21.1023 7.17114 22 5.8026 22C4.43406 22 3.47917 20.7459 2.38126 19.2057C1.10953 17.3971 0.0820312 14.5875 0.0820312 11.9208C0.0820312 7.64356 2.86311 5.37514 5.60018 5.37514C7.05453 5.37514 8.26685 6.33003 9.17994 6.33003C10.049 6.33003 11.4044 5.31793 13.0589 5.31793C13.686 5.31793 15.939 5.37514 17.422 7.50055ZM12.2734 3.50715C12.9577 2.69527 13.4418 1.56876 13.4418 0.442244C13.4418 0.286029 13.4286 0.127613 13.4 0C12.2867 0.0418044 10.9621 0.741475 10.1634 1.66777C9.53637 2.38064 8.95112 3.50715 8.95112 4.64906C8.95112 4.82068 8.97972 4.9923 8.99292 5.0473C9.06332 5.0605 9.17774 5.07591 9.29215 5.07591C10.291 5.07591 11.5474 4.40704 12.2734 3.50715Z" fill="#FAFAFA"/>
</svg>
