<svg width="36" height="45" viewBox="0 0 36 45" fill="none" xmlns="http://www.w3.org/2000/svg">
<ellipse cx="18" cy="17.5" rx="18" ry="17.5" fill="#26C000"/>
<path d="M17.7548 45C14.1534 42.8931 5.71879 31.4554 2 26H34C29.4592 33.5248 21.2778 41.802 17.7548 45Z" fill="#26C000"/>
<path d="M20.888 16.9433C18.4322 15.1709 15.8647 16.2971 14.8879 17.0817C14.5623 17.3125 13.8553 17.8848 13.632 18.3279C13.4088 18.771 12.4228 19.528 11.9577 19.8511C10.2832 20.848 9.95764 22.4819 10.0041 23.1743C10.1437 26.0821 12.5158 27.6052 15.0275 26.7744C17.5391 25.9436 18.5159 26.0821 20.888 26.7744C23.2602 27.4668 24.9346 26.2206 25.7718 24.559C26.609 22.8973 24.9346 20.2665 24.0974 19.8511C23.2602 19.4357 22.4229 18.6049 22.2834 18.3279C22.1718 18.1064 21.3066 17.3125 20.888 16.9433Z" fill="white"/>
<path d="M7.38268 16.4706C6.57048 14.8136 7.23764 13.4788 7.67275 13.0185C8.68798 11.9138 10.5735 12.19 11.5888 14.3993C12.401 16.1668 11.2503 17.4372 10.5735 17.8514C9.84831 18.0815 8.19488 18.1276 7.38268 16.4706Z" fill="white"/>
<path d="M11.8788 12.0519C11.4147 9.84259 12.749 8.55381 13.4742 8.18559C13.8958 7.90942 16.665 7.49517 17.2452 10.6711C17.7093 13.2118 15.7948 14.3993 14.7795 14.6755C14.006 14.7215 12.3429 14.2613 11.8788 12.0519Z" fill="white"/>
<path d="M18.8406 13.0185C18.0284 11.03 19.179 9.33627 19.8558 8.73795C21.4802 7.19144 23.1433 8.4618 23.7718 9.29029C24.584 11.1682 23.7234 13.0185 23.1916 13.709C22.9016 14.3994 19.8558 15.5041 18.8406 13.0185Z" fill="white"/>
<path d="M24.2069 15.0898C24.3229 13.5433 25.7056 12.6963 26.3824 12.4662C27.8328 12.19 28.8481 13.0185 28.9931 14.9517C29.1381 16.885 26.9626 18.1276 26.0924 17.9896C25.2221 17.8515 24.0619 17.023 24.2069 15.0898Z" fill="white"/>
</svg>
