<svg width="25" height="24" viewBox="0 0 25 24" fill="none" xmlns="http://www.w3.org/2000/svg">
<g clip-path="url(#clip0_391_3444)">
<path d="M16 21L10 18.9L5.35 20.7C5.01667 20.8333 4.70833 20.796 4.425 20.588C4.14167 20.38 4 20.1007 4 19.75V5.75C4 5.53333 4.06267 5.34167 4.188 5.175C4.31333 5.00833 4.484 4.88333 4.7 4.8L10 3L16 5.1L20.65 3.3C20.9833 3.16667 21.2917 3.20433 21.575 3.413C21.8583 3.62167 22 3.90067 22 4.25V18.25C22 18.4667 21.9377 18.6583 21.813 18.825C21.6883 18.9917 21.5173 19.1167 21.3 19.2L16 21ZM15 18.55V6.85L11 5.45V17.15L15 18.55ZM17 18.55L20 17.55V5.7L17 6.85V18.55ZM6 18.3L9 17.15V5.45L6 6.45V18.3Z" fill="#9E9E9E"/>
</g>
<defs>
<clipPath id="clip0_391_3444">
<rect width="24" height="24" fill="white" transform="translate(0.600098)"/>
</clipPath>
</defs>
</svg>
