<svg width="94" height="119" viewBox="0 0 94 119" fill="none" xmlns="http://www.w3.org/2000/svg">
<path d="M47.377 0C73.12 0.000181841 93.9883 20.8692 93.9883 46.6123C93.9882 54.5695 91.9929 62.0599 88.4775 68.6133H88.7686C77.0216 88.4026 55.8563 110.171 46.7422 118.581C38.4995 113.679 20.4701 89.5686 9.76074 74.1396C9.22434 73.4079 8.70773 72.6608 8.21387 71.8975C7.41539 70.7328 6.66937 69.6334 5.98535 68.6133H6.27637C2.7609 62.0598 0.764686 54.5696 0.764648 46.6123C0.764648 20.8691 21.6338 0 47.377 0ZM56.127 43.2783C48.6863 37.6305 40.9066 41.2194 37.9473 43.7197C36.9607 44.4551 34.8192 46.2786 34.1426 47.6904C33.4662 49.1024 30.4785 51.5154 29.0693 52.5449C23.9968 55.7216 23.0096 60.9274 23.1504 63.1338C23.5732 72.3996 30.7604 77.2536 38.3701 74.6064C45.9799 71.959 48.9399 72.4003 56.127 74.6064C63.3138 76.8125 68.3872 72.8416 70.9238 67.5469C73.4603 62.2523 68.3873 53.8692 65.8506 52.5449C63.314 51.2212 60.7773 48.5729 60.3545 47.6904C60.0156 46.9839 57.395 44.4547 56.127 43.2783ZM80.5439 39.1553C80.1063 33.2442 77.0428 30.7112 72.667 31.5557C70.6249 32.2594 66.4536 34.8493 66.1035 39.5781C65.666 45.4891 69.1665 48.0221 71.792 48.4443C74.4175 48.8665 80.9815 45.0666 80.5439 39.1553ZM28.0332 37.4668C24.9702 30.7113 19.2818 29.8666 16.2188 33.2441C14.906 34.6516 12.8933 38.7331 15.3438 43.7998C17.7942 48.8665 22.7828 48.7262 24.9707 48.0225C27.0128 46.7557 30.4835 42.8711 28.0332 37.4668ZM45.0996 26.0664C43.3493 16.3553 34.9937 17.6223 33.7217 18.4668C31.5337 19.593 27.508 23.5338 28.9082 30.2891C30.3085 37.0444 35.3263 38.4522 37.6602 38.3115C40.7233 37.4671 46.4999 33.8354 45.0996 26.0664ZM64.791 21.8447C62.8948 19.3114 57.8765 15.4264 52.9756 20.1553C50.9335 21.9848 47.4626 27.1639 49.9131 33.2441C52.9762 40.8444 62.1649 37.4668 63.04 35.3555C64.6445 33.2444 67.2411 27.5868 64.791 21.8447Z" fill="white"/>
</svg>
